HIERARCHY
ROOT Hips
{
	OFFSET -13.808980 106.085968 -1.014076
	CHANNELS 6 Xposition Yposition Zposition Xrotation Yrotation Zrotation
	JOINT Chest
	{
		OFFSET -0.657339 13.627632 -0.099285
		CHANNELS 3 Xrotation Yrotation Zrotation
		JOINT Chest2
		{
			OFFSET -0.762035 21.030281 4.026595
			CHANNELS 3 Xrotation Yrotation Zrotation
			JOINT Chest3
			{
				OFFSET 0.540637 14.900742 0.703874
				CHANNELS 3 Xrotation Yrotation Zrotation
				JOINT Neck
				{
					OFFSET 2.035231 17.052856 1.916808
					CHANNELS 3 Xrotation Yrotation Zrotation
					JOINT Head
					{
						OFFSET 2.836235 9.551163 3.249422
						CHANNELS 3 Xrotation Yrotation Zrotation
						End Site
						{
							OFFSET 2.835043 9.574768 3.180259
						}
					}
				}
				JOINT LeftCollar
				{
					OFFSET 5.855266 12.275024 4.104151
					CHANNELS 3 Xrotation Yrotation Zrotation
					JOINT LeftUpArm
					{
						OFFSET 15.818542 -3.447495 -6.810870
						CHANNELS 3 Xrotation Yrotation Zrotation
						JOINT LeftLowArm
						{
							OFFSET 29.922432 -13.512329 7.860880
							CHANNELS 3 Xrotation Yrotation Zrotation
							JOINT LeftHand
							{
								OFFSET 25.086845 2.599854 16.273829
								CHANNELS 3 Xrotation Yrotation Zrotation
								End Site
								{
									OFFSET 5.482887 0.568161 3.556742
								}
							}
						}
					}
				}
				JOINT RightCollar
				{
					OFFSET -2.495594 13.220551 4.560468
					CHANNELS 3 Xrotation Yrotation Zrotation
					JOINT RightUpArm
					{
						OFFSET -16.152161 2.302750 -6.503948
						CHANNELS 3 Xrotation Yrotation Zrotation
						JOINT RightLowArm
						{
							OFFSET -33.197990 -6.079697 0.815678
							CHANNELS 3 Xrotation Yrotation Zrotation
							JOINT RightHand
							{
								OFFSET -23.250755 -3.763992 18.606159
								CHANNELS 3 Xrotation Yrotation Zrotation
								End Site
								{
									OFFSET -5.081680 -0.822632 4.066572
								}
							}
						}
					}
				}
			}
		}
	}
	JOINT LeftUpLeg
	{
		OFFSET 10.000059 0.485268 0.427179
		CHANNELS 3 Xrotation Yrotation Zrotation
		JOINT LeftLowLeg
		{
			OFFSET 21.189274 -41.177086 9.972583
			CHANNELS 3 Xrotation Yrotation Zrotation
			JOINT LeftFoot
			{
				OFFSET 9.346899 -39.548111 -18.685577
				CHANNELS 3 Xrotation Yrotation Zrotation
				JOINT LeftToe
				{
					OFFSET 6.069136 -21.128950 8.734577
					CHANNELS 3 Xrotation Yrotation Zrotation
					End Site
					{
						OFFSET 5.846607 -10.328069 20.462332
					}
				}
			}
		}
	}
	JOINT RightUpLeg
	{
		OFFSET -10.000052 -0.485466 -0.427177
		CHANNELS 3 Xrotation Yrotation Zrotation
		JOINT RightLowLeg
		{
			OFFSET -10.773693 -45.482689 7.698335
			CHANNELS 3 Xrotation Yrotation Zrotation
			JOINT RightFoot
			{
				OFFSET 0.039680 -39.480415 -21.020824
				CHANNELS 3 Xrotation Yrotation Zrotation
				JOINT RightToe
				{
					OFFSET -5.169334 -21.814407 7.547616
					CHANNELS 3 Xrotation Yrotation Zrotation
					End Site
					{
						OFFSET -9.564873 -11.139684 18.546608
					}
				}
			}
		}
	}
}
MOTION
Frames: 16
Frame Time: 0.033333
-3.136349 105.376282 -1.111720 8.710355 -1.251934 -3.642199 -10.411679 -1.757993 4.164253 -2.678130 -1.500620 4.059889 4.768830 1.325674 1.443729 -11.862903 -6.436985 9.007220 -0.000003 0.000000 0.000002 7.725722 6.404180 -18.040975 10.704196 -13.719583 -43.363013 25.424216 -10.267025 -14.827439 -0.000000 -0.000003 0.000002 9.397930 -2.044496 28.124846 11.251957 17.920374 33.356315 16.817842 -8.256207 -2.052834 -0.000002 0.000002 0.000000 9.139508 -2.859619 -19.939006 -25.460582 -4.520885 10.721496 -14.408084 -11.827436 -3.345870 0.000002 0.000000 0.000000 1.400036 2.823754 14.567112 -20.869634 -1.417190 -13.648552 -10.376253 13.829578 3.805033 -0.000001 0.000005 -0.000001 
-3.142272 105.369003 -1.105494 9.118183 -1.244253 -3.624637 -10.830276 -1.756200 4.126146 -2.564948 -1.506868 4.054539 4.627831 1.112213 1.447933 -11.876305 -6.340338 8.907397 -0.000002 0.000001 0.000001 7.671677 6.810092 -17.806500 10.726354 -13.659346 -43.563414 25.717319 -10.006968 -15.244470 0.000006 -0.000002 -0.000001 9.419696 -1.735157 27.803414 11.109818 18.062201 33.735042 16.803833 -8.354616 -2.232663 0.000000 0.000002 -0.000000 8.926192 -2.869863 -19.900774 -25.390199 -4.468085 10.709087 -14.481579 -11.974080 -3.511024 -0.000000 -0.000001 -0.000000 1.482864 2.812936 14.585068 -21.498517 -1.390804 -13.686917 -10.270701 13.815804 3.746532 -0.000001 0.000001 -0.000001 
-3.145493 105.358963 -1.091828 9.136291 -1.290229 -3.701516 -10.872020 -1.770708 4.152119 -2.995207 -1.560000 4.128653 5.052807 1.190690 1.401288 -11.910158 -6.459092 8.956401 -0.000002 0.000001 0.000001 7.675938 6.735538 -17.517758 10.650123 -13.838201 -43.694499 25.870737 -10.115490 -15.283633 0.000003 -0.000002 -0.000000 9.341302 -2.160307 27.827038 11.181568 17.950137 33.782297 16.959090 -8.335756 -2.155587 -0.000004 0.000004 -0.000002 9.070670 -2.856440 -19.830129 -25.561962 -4.461254 10.698298 -14.312885 -11.877783 -3.408292 0.000000 -0.000001 -0.000001 1.804693 2.822575 14.697524 -21.900751 -1.397154 -13.805702 -10.178192 13.939970 3.878622 -0.000003 0.000002 0.000002 
-3.149024 105.349876 -1.081619 9.152915 -1.284526 -3.744504 -10.774635 -1.765696 4.089287 -2.273201 -1.570406 4.147401 4.435824 1.249655 1.502095 -12.406379 -6.347623 9.031638 -0.000003 0.000001 0.000001 7.738524 6.680454 -17.354169 10.636965 -13.958381 -43.722377 25.858932 -10.334974 -15.189595 0.000001 -0.000002 -0.000000 9.407863 -2.152387 27.896294 11.240459 18.159502 33.568133 16.898108 -8.150350 -2.295199 0.000003 0.000002 -0.000000 9.080252 -2.861674 -19.756148 -25.393038 -4.429451 10.668411 -14.343990 -11.849124 -3.356966 0.000002 -0.000001 -0.000001 1.728397 2.849230 14.819760 -21.830982 -1.342645 -13.937705 -10.139067 14.053179 3.990848 -0.000001 0.000005 0.000000 
-3.148415 105.345848 -1.079016 9.278295 -1.101551 -3.789786 -11.008526 -1.806520 4.154455 -1.594062 -1.547870 4.133108 4.025567 1.287939 1.514243 -12.252034 -6.419990 9.141847 -0.000003 0.000000 0.000002 7.832757 6.157368 -17.246731 10.563101 -14.356996 -43.722339 25.835008 -10.281871 -14.933500 -0.000000 -0.000002 -0.000000 9.551368 -2.008650 27.874485 11.396628 18.609226 33.355058 16.815412 -8.022732 -2.585037 0.000003 0.000002 -0.000001 8.884544 -2.942890 -19.682450 -25.338706 -4.460121 10.659260 -14.534991 -11.863823 -3.386097 -0.000000 -0.000001 -0.000000 1.283222 2.907015 14.758680 -21.492712 -1.293073 -13.725322 -10.428682 13.571603 3.645123 -0.000003 0.000003 -0.000000 
-3.148824 105.340775 -1.080190 9.324222 -1.342400 -3.724951 -10.918143 -1.768883 4.089931 -2.534097 -1.522897 4.109015 4.788219 1.223825 1.527473 -12.328204 -6.366398 9.081178 -0.000001 0.000002 0.000001 7.731180 6.727547 -17.190934 10.662634 -14.044520 -43.747232 25.569430 -10.563619 -15.301205 -0.000001 -0.000000 -0.000000 9.437226 -2.015339 27.717722 11.246639 18.542234 33.536550 16.735326 -8.182451 -2.169369 -0.000001 0.000005 -0.000002 9.118739 -2.933770 -19.673699 -25.989648 -4.588465 10.506269 -14.067542 -11.597886 -3.147848 0.000004 -0.000000 -0.000001 1.488933 2.894267 14.657939 -21.770188 -1.285997 -13.704723 -10.050063 13.743457 3.847390 -0.000001 0.000002 -0.000000 
-3.154445 105.334282 -1.075103 9.350675 -1.503448 -3.709412 -10.812120 -1.732255 3.994952 -2.737533 -1.518619 4.094402 4.683234 1.379810 1.614408 -12.090768 -6.465163 9.008935 -0.000003 0.000001 -0.000000 7.715972 6.853589 -17.243344 10.694190 -13.976259 -43.626464 25.694484 -10.619792 -15.248775 -0.000003 -0.000005 0.000000 9.409580 -2.001633 27.588106 11.202665 18.460862 33.747780 16.849472 -8.171526 -2.217621 0.000002 0.000004 -0.000000 9.243621 -2.902603 -19.687498 -26.397638 -4.713910 10.506145 -13.470802 -11.337555 -2.984920 0.000000 -0.000001 -0.000001 1.858197 2.900898 14.700331 -22.229653 -1.285554 -13.825197 -10.169686 14.000438 3.942163 -0.000004 0.000001 -0.000000 
-3.156491 105.336220 -1.073822 9.218248 -1.469478 -3.759795 -10.619798 -1.744253 4.096871 -3.049308 -1.561079 4.120729 5.000586 1.097607 1.489170 -12.337475 -6.242016 8.920658 -0.000002 0.000000 0.000001 7.643053 7.194412 -17.238911 10.676397 -13.817264 -43.515344 25.812644 -10.576053 -15.672945 0.000002 -0.000000 -0.000000 9.417693 -1.721190 27.431968 11.054712 18.294441 33.930187 16.875813 -8.189109 -2.108941 -0.000001 -0.000001 -0.000002 9.465800 -2.776642 -19.594040 -26.322647 -4.634181 10.458247 -14.031349 -11.734075 -3.344532 -0.000002 0.000001 -0.000002 1.845351 2.835766 14.740716 -22.010112 -1.318224 -13.847483 -10.226222 14.185978 4.102305 -0.000001 -0.000000 -0.000002 
-3.159177 105.332314 -1.067140 9.445519 -1.341065 -3.726989 -11.149582 -1.757459 4.056419 -2.702984 -1.530301 4.087629 4.897574 1.291055 1.515355 -12.141882 -6.434870 9.039135 -0.000002 0.000001 0.000001 7.751891 6.549020 -17.094160 10.628803 -13.990808 -43.570525 25.772728 -10.461997 -15.498865 0.000003 -0.000002 -0.000001 9.414208 -2.074632 27.377336 11.240960 18.144411 34.009411 16.785827 -7.916579 -2.311191 -0.000003 -0.000001 -0.000002 9.388211 -2.794045 -19.637277 -26.512841 -4.803568 10.453295 -13.367680 -11.576068 -3.332289 0.000000 -0.000001 -0.000000 1.869757 2.842299 14.688093 -22.176789 -1.242958 -13.813669 -9.919533 14.048867 4.022568 -0.000002 0.000001 -0.000001 
-3.165649 105.327568 -1.056767 9.271311 -1.483240 -3.664587 -10.914153 -1.716530 3.971864 -2.916971 -1.485473 4.012885 5.072903 1.412643 1.582920 -11.998899 -6.539567 9.018006 -0.000000 0.000001 0.000001 7.668926 6.390865 -17.097258 10.559889 -13.895714 -43.517840 25.919560 -10.248541 -15.672166 -0.000001 0.000003 -0.000001 9.267962 -2.429169 27.419960 11.019242 18.210934 33.975079 17.061355 -8.243992 -1.832769 -0.000003 0.000004 -0.000004 9.657276 -2.746112 -19.756394 -26.361443 -4.782633 10.535417 -13.581656 -11.773619 -3.550740 0.000000 -0.000001 -0.000001 2.103454 2.811583 14.640138 -22.186087 -1.278179 -13.784401 -9.925602 14.207763 4.172458 -0.000001 0.000001 -0.000001 
-3.173321 105.324425 -1.049832 9.340865 -1.208146 -3.746457 -10.728083 -1.725330 4.069611 -2.939092 -1.563786 4.081296 4.958753 1.156093 1.437141 -11.907078 -6.463603 8.924791 -0.000003 0.000001 0.000001 7.569234 6.560199 -17.202158 10.497480 -13.848141 -43.381298 25.964235 -10.332866 -15.773567 0.000003 -0.000000 -0.000002 9.273718 -2.023726 27.304064 10.939848 17.992871 34.129055 17.061739 -8.276295 -1.857547 -0.000003 0.000002 0.000001 9.358369 -2.752545 -19.717890 -25.845770 -4.601546 10.729281 -13.816987 -12.257310 -4.029058 0.000002 -0.000001 -0.000000 1.981822 2.787717 14.710831 -21.893031 -1.394985 -13.747380 -10.119148 14.136182 4.078021 -0.000003 0.000001 -0.000000 
-3.182234 105.328117 -1.048811 9.774223 -1.366213 -3.792331 -11.278241 -1.741287 4.058689 -2.238113 -1.551221 4.077179 4.358043 1.282032 1.503219 -12.024939 -6.471103 8.983669 -0.000002 0.000002 -0.000001 7.529189 6.339231 -17.160201 10.581433 -13.572155 -43.395057 25.765823 -10.375347 -15.962804 0.000003 -0.000005 0.000000 9.268671 -1.867949 27.314746 10.837473 18.034324 33.995996 16.987780 -8.385908 -1.662160 0.000001 0.000004 -0.000000 8.812723 -2.781365 -19.585521 -25.809236 -4.584329 10.648411 -14.094543 -12.060303 -3.712712 0.000002 -0.000001 -0.000000 1.559613 2.781553 14.792679 -22.178162 -1.360561 -13.745263 -10.122101 14.294723 4.210556 -0.000001 0.000003 -0.000000 
-3.195977 105.326111 -1.037368 9.403812 -1.273687 -3.747067 -10.744185 -1.694090 3.951531 -2.644100 -1.531425 4.059273 4.619761 1.047108 1.489364 -11.790416 -6.479882 8.978390 -0.000002 0.000001 0.000001 7.443556 6.980187 -17.023582 10.543883 -13.443143 -43.497247 25.728889 -10.417527 -16.408729 0.000002 0.000000 0.000000 9.064896 -2.324766 27.199017 10.774652 17.785218 34.189533 16.773830 -8.067848 -1.459193 -0.000003 0.000004 -0.000002 9.204704 -2.766905 -19.623654 -26.014433 -4.670302 10.642289 -13.965331 -11.931683 -3.586082 -0.000001 -0.000001 -0.000001 1.975416 2.784961 14.821953 -22.178618 -1.324098 -13.790963 -10.115993 14.039475 4.019270 0.000001 -0.000000 -0.000002 
-3.213906 105.322121 -1.031048 9.408621 -1.470466 -3.726210 -10.787519 -1.678683 3.843470 -2.667027 -1.486543 4.015673 4.763631 1.235466 1.598164 -11.663119 -6.587856 8.986435 -0.000003 0.000001 0.000000 7.505025 6.972447 -16.810094 10.470806 -13.519167 -43.741068 25.588546 -10.294630 -16.454079 0.000000 -0.000002 0.000000 9.129842 -2.153482 27.073121 10.762661 17.991724 34.337608 16.347320 -7.576775 -2.049762 0.000002 0.000001 0.000001 9.107215 -2.814146 -19.551777 -25.548710 -4.491350 10.535670 -14.657665 -11.959989 -3.396496 0.000000 -0.000001 0.000000 1.790740 2.814009 14.850042 -21.583678 -1.373430 -13.845249 -10.366380 14.232484 4.054952 -0.000005 -0.000000 -0.000001 
-3.229025 105.319435 -1.021869 9.652232 -1.401822 -3.788206 -11.115151 -1.709225 3.911049 -2.874918 -1.535714 4.072289 5.052981 0.926844 1.492554 -11.568065 -6.525206 8.936891 -0.000002 -0.000000 0.000003 7.476833 7.152483 -16.609656 10.770648 -13.380702 -43.928754 25.846911 -10.137541 -16.375770 0.000003 -0.000003 0.000000 9.242687 -1.835648 26.807845 10.752587 18.250399 34.444583 16.594677 -7.676777 -2.146920 -0.000002 0.000002 -0.000001 8.792660 -2.847732 -19.482234 -25.421988 -4.434480 10.616084 -14.935380 -12.033779 -3.453939 0.000005 0.000000 -0.000000 1.667184 2.843784 14.942113 -21.660176 -1.343933 -13.831970 -10.531874 14.020997 3.938407 -0.000003 0.000004 -0.000000 
-3.248215 105.321335 -1.014872 9.606999 -1.215988 -3.769698 -11.083177 -1.709315 3.927960 -2.725949 -1.597491 4.157725 4.876396 0.902973 1.356218 -11.305721 -6.539151 8.952431 -0.000002 0.000000 -0.000000 7.553259 7.154043 -16.703521 10.736658 -13.679883 -43.799551 25.802310 -10.334323 -15.821918 -0.000002 -0.000002 -0.000001 9.355080 -1.876106 26.892572 10.781475 18.802722 34.311735 16.674344 -7.678227 -2.677687 -0.000003 0.000001 0.000001 8.092992 -2.933864 -19.498404 -24.198711 -4.171171 10.704173 -15.601844 -12.164460 -3.517206 0.000002 -0.000001 -0.000000 1.458995 2.882771 14.873039 -21.325346 -1.299124 -13.591930 -10.613324 13.337170 3.411337 -0.000003 0.000003 -0.000000 
